<?xml version="1.0" encoding="UTF-8" standalone="no"?>
<svg
   xmlns:dc="http://purl.org/dc/elements/1.1/"
   xmlns:cc="http://creativecommons.org/ns#"
   xmlns:rdf="http://www.w3.org/1999/02/22-rdf-syntax-ns#"
   xmlns:svg="http://www.w3.org/2000/svg"
   xmlns="http://www.w3.org/2000/svg"
   xmlns:sodipodi="http://sodipodi.sourceforge.net/DTD/sodipodi-0.dtd"
   xmlns:inkscape="http://www.inkscape.org/namespaces/inkscape"
   inkscape:version="1.0 (4035a4fb49, 2020-05-01)"
   sodipodi:docname="caixa.svg"
   viewBox="0 0 819.88977 595.27557"
   id="svg17"
   height="595.27557"
   width="819.88977"
   version="1.1">
  <metadata
     id="metadata23">
    <rdf:RDF>
      <cc:Work
         rdf:about="">
        <dc:format>image/svg+xml</dc:format>
        <dc:type
           rdf:resource="http://purl.org/dc/dcmitype/StillImage" />
        <dc:title></dc:title>
      </cc:Work>
    </rdf:RDF>
  </metadata>
  <defs
     id="defs21" />
  <sodipodi:namedview
     showguides="false"
     inkscape:current-layer="svg17"
     inkscape:window-maximized="1"
     inkscape:window-y="-8"
     inkscape:window-x="-8"
     inkscape:cy="358.35085"
     inkscape:cx="297.63779"
     inkscape:zoom="0.63903853"
     width="841.88977px"
     showgrid="false"
     id="namedview19"
     inkscape:window-height="705"
     inkscape:window-width="1366"
     inkscape:pageshadow="2"
     inkscape:pageopacity="0"
     guidetolerance="10"
     gridtolerance="10"
     objecttolerance="10"
     borderopacity="1"
     bordercolor="#666666"
     pagecolor="#ffffff" />
  <path
     d="m 137.39302,3.8610439 h 580.5096 V 584.37064 h -580.5096 z"
     style="fill:#ffffff;fill-rule:evenodd"
     id="path2" />
  <rect
     y="-18.77821"
     x="-28.167316"
     height="641.58887"
     width="870.05707"
     id="rect1480"
     style="fill:#000000;stroke:#000000;stroke-width:1.51181;stroke-linecap:square" />
  <g
     transform="translate(-1.5648509,1.5648508)"
     id="g1478">
    <path
       id="path4"
       style="fill:#0070af;fill-rule:evenodd"
       d="m 325.28112,276.81869 -12.8202,31.9531 17.7386,10e-4 -4.8638,-32.0885 -0.0546,0.1343 z m -67.9299,73.3457 52.6044,-108.2924 h 39.7627 l 22.1811,108.2924 h -34.9205 l -2.5656,-14.4285 h -33.8756 l -7.7936,14.4285 z m 131.0722,0 15.239,-108.2924 h 35.1823 l -15.239,108.2924 z m 233.9762,-73.4812 -12.8748,32.0886 17.7385,10e-4 -4.8637,-32.0897 z m -67.9868,73.4812 52.6067,-108.2924 h 39.7592 l 22.1811,108.2924 h -34.9193 l -2.5656,-14.4285 h -33.8756 l -7.7937,14.4285 z" />
    <path
       id="path6"
       style="fill:#0070af;fill-rule:evenodd"
       d="m 476.64272,299.53029 h 44.0812 l 30.2013,50.0285 h -44.0812 z" />
    <path
       id="path8"
       style="fill:#f5822b;fill-rule:evenodd"
       d="m 481.22422,291.84359 h 45.5631 l 39.5726,-49.8145 h -45.5632 z" />
    <path
       id="path10"
       style="fill:#f5822b;fill-rule:evenodd"
       d="m 435.66102,349.86269 h 45.5632 l 39.5725,-50.4269 h -45.5632 z" />
    <path
       id="path12"
       style="fill:#0070af;fill-rule:evenodd"
       d="m 452.09282,241.42349 h 42.5241 l 29.1313,50.4201 h -42.524 z" />
    <path
       id="path14"
       style="fill:#0070af;fill-rule:evenodd"
       d="m 258.39612,245.75119 -3.3851,31.8483 c -12.9682,-17.8865 -43.0181,-5.5444 -45.3788,16.7392 -2.9993,28.2856 25.9237,34.8772 41.6658,18.22 l -3.3909,31.9235 c -4.6987,2.3129 -9.2904,4.0989 -13.823,5.3191 -4.5086,1.2111 -9.0286,1.8519 -13.5133,1.9452 -5.6378,0.1173 -10.7451,-0.4701 -15.3471,-1.7642 -4.6042,-1.2715 -8.7668,-3.2953 -12.4502,-6.0294 -7.1073,-5.195 -12.2453,-11.7991 -15.4131,-19.8409 -3.1621,-8.0657 -4.207,-17.1637 -3.1257,-27.334 0.8674,-8.1738 2.9299,-15.6248 6.2104,-22.3849 3.2531,-6.7556 7.7583,-12.893 13.4951,-18.458 5.4238,-5.3099 11.3302,-9.312 17.7238,-12.0347 6.3639,-2.6954 13.3141,-4.1353 20.8255,-4.2912 4.4847,-0.0968 8.8874,0.3619 13.1582,1.3886 4.2889,1.0313 8.5232,2.6305 12.7484,4.7534 z" />
  </g>
</svg>
