<?xml version="1.0" encoding="UTF-8" standalone="no"?>
<svg
   xmlns:dc="http://purl.org/dc/elements/1.1/"
   xmlns:cc="http://creativecommons.org/ns#"
   xmlns:rdf="http://www.w3.org/1999/02/22-rdf-syntax-ns#"
   xmlns:svg="http://www.w3.org/2000/svg"
   xmlns="http://www.w3.org/2000/svg"
   xmlns:sodipodi="http://sodipodi.sourceforge.net/DTD/sodipodi-0.dtd"
   xmlns:inkscape="http://www.inkscape.org/namespaces/inkscape"
   sodipodi:docname="mastercard.svg"
   inkscape:version="1.0 (4035a4fb49, 2020-05-01)"
   width="1000.008"
   height="618.03101"
   viewBox="0 0 1000.008 618.03103"
   id="svg3409"
   version="1.1">
  <sodipodi:namedview
     inkscape:document-rotation="0"
     inkscape:current-layer="g13"
     inkscape:window-maximized="1"
     inkscape:window-y="-8"
     inkscape:window-x="-8"
     inkscape:cy="259.7275"
     inkscape:cx="632.03677"
     inkscape:zoom="0.5"
     showgrid="false"
     id="namedview4178"
     inkscape:window-height="705"
     inkscape:window-width="1366"
     inkscape:pageshadow="2"
     inkscape:pageopacity="0"
     guidetolerance="10"
     gridtolerance="10"
     objecttolerance="10"
     borderopacity="1"
     bordercolor="#666666"
     pagecolor="#ffffff" />
  <defs
     id="defs3411" />
  <metadata
     id="metadata3414">
    <rdf:RDF>
      <cc:Work
         rdf:about="">
        <dc:format>image/svg+xml</dc:format>
        <dc:type
           rdf:resource="http://purl.org/dc/dcmitype/StillImage" />
        <dc:title />
      </cc:Work>
    </rdf:RDF>
  </metadata>
  <g
     id="layer1"
     transform="matrix(3.3557321,0,0,3.3557321,-1551.7864,-2007.0469)">
    <g
       id="g13"
       transform="matrix(2.5579399,0,0,2.5579399,884.90115,-11.427398)">
      <rect
         y="236.82523"
         x="-166.55856"
         height="76.549927"
         width="120.22565"
         id="rect838"
         style="fill:#000000;stroke:#808000;stroke-width:0.177498;stroke-linecap:square" />
      <rect
         style="fill:#ff5f00;stroke-width:0.703608"
         id="rect19"
         height="39.824268"
         width="22.163683"
         class="st1"
         y="254.36803"
         x="-117.99672" />
      <path
         style="fill:#eb001b;stroke-width:0.703608"
         d="m -116.58952,274.28015 c 0,-8.0915 3.79949,-15.26831 9.63945,-19.91213 -4.29202,-3.37733 -9.70981,-5.41779 -15.62012,-5.41779 -14.00182,0 -25.32993,11.3281 -25.32993,25.32992 0,14.00182 11.32811,25.32993 25.32993,25.32993 5.91031,0 11.3281,-2.04046 15.62012,-5.41779 -5.83996,-4.57346 -9.63945,-11.82064 -9.63945,-19.91214 z"
         class="st2"
         id="XMLID_330_"
         inkscape:connector-curvature="0" />
      <path
         style="fill:#f79e1b;stroke-width:0.703608"
         id="path22"
         d="m -65.929667,274.28015 c 0,14.00182 -11.328105,25.32993 -25.329925,25.32993 -5.910315,0 -11.328108,-2.04046 -15.620118,-5.41779 5.91031,-4.64383 9.639442,-11.82064 9.639442,-19.91214 0,-8.0915 -3.799492,-15.26831 -9.639442,-19.91213 4.29201,-3.37733 9.709803,-5.41779 15.620118,-5.41779 14.00182,0 25.329925,11.39847 25.329925,25.32992 z"
         class="st3"
         inkscape:connector-curvature="0" />
    </g>
  </g>
</svg>
